<svg width="150" height="150" viewBox="0 0 150 150" fill="none" xmlns="http://www.w3.org/2000/svg">
<g clip-path="url(#clip0_28_16908)">
<path d="M150 0H0V150H150V0Z" fill="white"/>
<path d="M62.0689 10.3448H56.8965V15.5172H62.0689V10.3448Z" fill="black"/>
<path d="M67.2408 10.3448H62.0684V15.5172H67.2408V10.3448Z" fill="black"/>
<path d="M82.7574 10.3448H77.585V15.5172H82.7574V10.3448Z" fill="black"/>
<path d="M87.9302 10.3448H82.7578V15.5172H87.9302V10.3448Z" fill="black"/>
<path d="M56.896 15.5172H51.7236V20.6897H56.896V15.5172Z" fill="black"/>
<path d="M72.4136 15.5172H67.2412V20.6896H72.4136V15.5172Z" fill="black"/>
<path d="M77.5855 15.5172H72.4131V20.6897H77.5855V15.5172Z" fill="black"/>
<path d="M87.9302 15.5173H82.7578V20.6897H87.9302V15.5173Z" fill="black"/>
<path d="M56.896 20.6897H51.7236V25.8621H56.896V20.6897Z" fill="black"/>
<path d="M62.0689 20.6896H56.8965V25.8621H62.0689V20.6896Z" fill="black"/>
<path d="M67.2408 20.6897H62.0684V25.8621H67.2408V20.6897Z" fill="black"/>
<path d="M87.9302 20.6896H82.7578V25.8621H87.9302V20.6896Z" fill="black"/>
<path d="M93.1041 20.6897H87.9316V25.8621H93.1041V20.6897Z" fill="black"/>
<path d="M98.2759 20.6896H93.1035V25.8621H98.2759V20.6896Z" fill="black"/>
<path d="M56.896 25.8621H51.7236V31.0345H56.896V25.8621Z" fill="black"/>
<path d="M67.2408 25.8621H62.0684V31.0345H67.2408V25.8621Z" fill="black"/>
<path d="M77.5855 25.8621H72.4131V31.0345H77.5855V25.8621Z" fill="black"/>
<path d="M82.7574 25.8621H77.585V31.0345H82.7574V25.8621Z" fill="black"/>
<path d="M98.2759 25.8621H93.1035V31.0345H98.2759V25.8621Z" fill="black"/>
<path d="M67.2408 31.0345H62.0684V36.2069H67.2408V31.0345Z" fill="black"/>
<path d="M87.9302 31.0344H82.7578V36.2068H87.9302V31.0344Z" fill="black"/>
<path d="M98.2759 31.0345H93.1035V36.2069H98.2759V31.0345Z" fill="black"/>
<path d="M62.0689 36.2069H56.8965V41.3793H62.0689V36.2069Z" fill="black"/>
<path d="M67.2408 36.2069H62.0684V41.3793H67.2408V36.2069Z" fill="black"/>
<path d="M72.4136 36.2069H67.2412V41.3793H72.4136V36.2069Z" fill="black"/>
<path d="M77.5855 36.2069H72.4131V41.3793H77.5855V36.2069Z" fill="black"/>
<path d="M82.7574 36.2069H77.585V41.3793H82.7574V36.2069Z" fill="black"/>
<path d="M87.9302 36.2069H82.7578V41.3793H87.9302V36.2069Z" fill="black"/>
<path d="M98.2759 36.2069H93.1035V41.3793H98.2759V36.2069Z" fill="black"/>
<path d="M56.896 41.3793H51.7236V46.5517H56.896V41.3793Z" fill="black"/>
<path d="M67.2408 41.3793H62.0684V46.5517H67.2408V41.3793Z" fill="black"/>
<path d="M77.5855 41.3793H72.4131V46.5517H77.5855V41.3793Z" fill="black"/>
<path d="M87.9302 41.3793H82.7578V46.5517H87.9302V41.3793Z" fill="black"/>
<path d="M98.2759 41.3793H93.1035V46.5517H98.2759V41.3793Z" fill="black"/>
<path d="M56.896 46.5517H51.7236V51.7241H56.896V46.5517Z" fill="black"/>
<path d="M67.2408 46.5517H62.0684V51.7241H67.2408V46.5517Z" fill="black"/>
<path d="M72.4136 46.5517H67.2412V51.7241H72.4136V46.5517Z" fill="black"/>
<path d="M77.5855 46.5517H72.4131V51.7241H77.5855V46.5517Z" fill="black"/>
<path d="M93.1041 46.5517H87.9316V51.7241H93.1041V46.5517Z" fill="black"/>
<path d="M98.2759 46.5517H93.1035V51.7241H98.2759V46.5517Z" fill="black"/>
<path d="M15.5171 51.7241H10.3447V56.8965H15.5171V51.7241Z" fill="black"/>
<path d="M46.5523 51.7241H41.3799V56.8965H46.5523V51.7241Z" fill="black"/>
<path d="M56.896 51.7241H51.7236V56.8965H56.896V51.7241Z" fill="black"/>
<path d="M62.0689 51.7241H56.8965V56.8965H62.0689V51.7241Z" fill="black"/>
<path d="M72.4136 51.7241H67.2412V56.8965H72.4136V51.7241Z" fill="black"/>
<path d="M82.7574 51.7241H77.585V56.8965H82.7574V51.7241Z" fill="black"/>
<path d="M87.9302 51.7241H82.7578V56.8965H87.9302V51.7241Z" fill="black"/>
<path d="M98.2759 51.7241H93.1035V56.8965H98.2759V51.7241Z" fill="black"/>
<path d="M103.449 51.7241H98.2764V56.8965H103.449V51.7241Z" fill="black"/>
<path d="M108.621 51.7241H103.448V56.8965H108.621V51.7241Z" fill="black"/>
<path d="M124.137 51.7241H118.965V56.8965H124.137V51.7241Z" fill="black"/>
<path d="M129.31 51.7241H124.138V56.8965H129.31V51.7241Z" fill="black"/>
<path d="M134.482 51.7241H129.31V56.8965H134.482V51.7241Z" fill="black"/>
<path d="M20.689 56.8965H15.5166V62.069H20.689V56.8965Z" fill="black"/>
<path d="M31.0337 56.8965H25.8613V62.069H31.0337V56.8965Z" fill="black"/>
<path d="M36.2076 56.8965H31.0352V62.069H36.2076V56.8965Z" fill="black"/>
<path d="M51.7242 56.8965H46.5518V62.069H51.7242V56.8965Z" fill="black"/>
<path d="M56.896 56.8965H51.7236V62.069H56.896V56.8965Z" fill="black"/>
<path d="M62.0689 56.8965H56.8965V62.069H62.0689V56.8965Z" fill="black"/>
<path d="M77.5855 56.8965H72.4131V62.069H77.5855V56.8965Z" fill="black"/>
<path d="M87.9302 56.8965H82.7578V62.069H87.9302V56.8965Z" fill="black"/>
<path d="M118.965 56.8965H113.793V62.069H118.965V56.8965Z" fill="black"/>
<path d="M124.137 56.8965H118.965V62.069H124.137V56.8965Z" fill="black"/>
<path d="M129.31 56.8965H124.138V62.069H129.31V56.8965Z" fill="black"/>
<path d="M134.482 56.8965H129.31V62.069H134.482V56.8965Z" fill="black"/>
<path d="M46.5523 62.069H41.3799V67.2414H46.5523V62.069Z" fill="black"/>
<path d="M51.7242 62.0689H46.5518V67.2414H51.7242V62.0689Z" fill="black"/>
<path d="M62.0689 62.0689H56.8965V67.2414H62.0689V62.0689Z" fill="black"/>
<path d="M72.4136 62.0689H67.2412V67.2414H72.4136V62.0689Z" fill="black"/>
<path d="M77.5855 62.069H72.4131V67.2414H77.5855V62.069Z" fill="black"/>
<path d="M87.9302 62.0689H82.7578V67.2413H87.9302V62.0689Z" fill="black"/>
<path d="M93.1041 62.069H87.9316V67.2414H93.1041V62.069Z" fill="black"/>
<path d="M98.2759 62.0689H93.1035V67.2414H98.2759V62.0689Z" fill="black"/>
<path d="M103.449 62.069H98.2764V67.2414H103.449V62.069Z" fill="black"/>
<path d="M124.137 62.069H118.965V67.2414H124.137V62.069Z" fill="black"/>
<path d="M134.482 62.069H129.31V67.2414H134.482V62.069Z" fill="black"/>
<path d="M139.656 62.069H134.483V67.2414H139.656V62.069Z" fill="black"/>
<path d="M25.8619 67.2414H20.6895V72.4138H25.8619V67.2414Z" fill="black"/>
<path d="M36.2076 67.2414H31.0352V72.4138H36.2076V67.2414Z" fill="black"/>
<path d="M51.7242 67.2414H46.5518V72.4138H51.7242V67.2414Z" fill="black"/>
<path d="M62.0689 67.2414H56.8965V72.4138H62.0689V67.2414Z" fill="black"/>
<path d="M72.4136 67.2414H67.2412V72.4138H72.4136V67.2414Z" fill="black"/>
<path d="M87.9302 67.2413H82.7578V72.4137H87.9302V67.2413Z" fill="black"/>
<path d="M98.2759 67.2414H93.1035V72.4138H98.2759V67.2414Z" fill="black"/>
<path d="M113.793 67.2414H108.62V72.4138H113.793V67.2414Z" fill="black"/>
<path d="M124.137 67.2414H118.965V72.4138H124.137V67.2414Z" fill="black"/>
<path d="M139.656 67.2414H134.483V72.4138H139.656V67.2414Z" fill="black"/>
<path d="M20.689 72.4138H15.5166V77.5862H20.689V72.4138Z" fill="black"/>
<path d="M31.0337 72.4138H25.8613V77.5862H31.0337V72.4138Z" fill="black"/>
<path d="M36.2076 72.4138H31.0352V77.5862H36.2076V72.4138Z" fill="black"/>
<path d="M46.5523 72.4138H41.3799V77.5862H46.5523V72.4138Z" fill="black"/>
<path d="M51.7242 72.4138H46.5518V77.5862H51.7242V72.4138Z" fill="black"/>
<path d="M56.896 72.4138H51.7236V77.5862H56.896V72.4138Z" fill="black"/>
<path d="M77.5855 72.4138H72.4131V77.5862H77.5855V72.4138Z" fill="black"/>
<path d="M98.2759 72.4138H93.1035V77.5862H98.2759V72.4138Z" fill="black"/>
<path d="M108.621 72.4138H103.448V77.5862H108.621V72.4138Z" fill="black"/>
<path d="M139.656 72.4138H134.483V77.5862H139.656V72.4138Z" fill="black"/>
<path d="M15.5171 77.5862H10.3447V82.7586H15.5171V77.5862Z" fill="black"/>
<path d="M20.689 77.5862H15.5166V82.7586H20.689V77.5862Z" fill="black"/>
<path d="M56.896 77.5862H51.7236V82.7586H56.896V77.5862Z" fill="black"/>
<path d="M62.0689 77.5862H56.8965V82.7586H62.0689V77.5862Z" fill="black"/>
<path d="M82.7574 77.5862H77.585V82.7586H82.7574V77.5862Z" fill="black"/>
<path d="M93.1041 77.5862H87.9316V82.7586H93.1041V77.5862Z" fill="black"/>
<path d="M98.2759 77.5862H93.1035V82.7586H98.2759V77.5862Z" fill="black"/>
<path d="M113.793 77.5862H108.62V82.7586H113.793V77.5862Z" fill="black"/>
<path d="M134.482 77.5862H129.31V82.7586H134.482V77.5862Z" fill="black"/>
<path d="M15.5171 82.7586H10.3447V87.931H15.5171V82.7586Z" fill="black"/>
<path d="M31.0337 82.7586H25.8613V87.9311H31.0337V82.7586Z" fill="black"/>
<path d="M36.2076 82.7586H31.0352V87.9311H36.2076V82.7586Z" fill="black"/>
<path d="M41.3794 82.7586H36.207V87.931H41.3794V82.7586Z" fill="black"/>
<path d="M46.5523 82.7586H41.3799V87.9311H46.5523V82.7586Z" fill="black"/>
<path d="M56.896 82.7586H51.7236V87.9311H56.896V82.7586Z" fill="black"/>
<path d="M62.0689 82.7586H56.8965V87.931H62.0689V82.7586Z" fill="black"/>
<path d="M72.4136 82.7586H67.2412V87.931H72.4136V82.7586Z" fill="black"/>
<path d="M77.5855 82.7586H72.4131V87.9311H77.5855V82.7586Z" fill="black"/>
<path d="M87.9302 82.7586H82.7578V87.931H87.9302V82.7586Z" fill="black"/>
<path d="M93.1041 82.7586H87.9316V87.9311H93.1041V82.7586Z" fill="black"/>
<path d="M98.2759 82.7586H93.1035V87.931H98.2759V82.7586Z" fill="black"/>
<path d="M103.449 82.7586H98.2764V87.9311H103.449V82.7586Z" fill="black"/>
<path d="M113.793 82.7586H108.62V87.9311H113.793V82.7586Z" fill="black"/>
<path d="M118.965 82.7586H113.793V87.931H118.965V82.7586Z" fill="black"/>
<path d="M124.137 82.7586H118.965V87.9311H124.137V82.7586Z" fill="black"/>
<path d="M134.482 82.7586H129.31V87.9311H134.482V82.7586Z" fill="black"/>
<path d="M139.656 82.7586H134.483V87.9311H139.656V82.7586Z" fill="black"/>
<path d="M15.5171 87.931H10.3447V93.1034H15.5171V87.931Z" fill="black"/>
<path d="M31.0337 87.931H25.8613V93.1034H31.0337V87.931Z" fill="black"/>
<path d="M41.3794 87.931H36.207V93.1034H41.3794V87.931Z" fill="black"/>
<path d="M51.7242 87.931H46.5518V93.1034H51.7242V87.931Z" fill="black"/>
<path d="M62.0689 87.931H56.8965V93.1034H62.0689V87.931Z" fill="black"/>
<path d="M67.2408 87.931H62.0684V93.1034H67.2408V87.931Z" fill="black"/>
<path d="M72.4136 87.931H67.2412V93.1034H72.4136V87.931Z" fill="black"/>
<path d="M87.9302 87.931H82.7578V93.1034H87.9302V87.931Z" fill="black"/>
<path d="M103.449 87.931H98.2764V93.1034H103.449V87.931Z" fill="black"/>
<path d="M108.621 87.931H103.448V93.1034H108.621V87.931Z" fill="black"/>
<path d="M113.793 87.931H108.62V93.1034H113.793V87.931Z" fill="black"/>
<path d="M124.137 87.931H118.965V93.1034H124.137V87.931Z" fill="black"/>
<path d="M129.31 87.931H124.138V93.1034H129.31V87.931Z" fill="black"/>
<path d="M139.656 87.931H134.483V93.1034H139.656V87.931Z" fill="black"/>
<path d="M15.5171 93.1034H10.3447V98.2758H15.5171V93.1034Z" fill="black"/>
<path d="M25.8619 93.1034H20.6895V98.2758H25.8619V93.1034Z" fill="black"/>
<path d="M31.0337 93.1035H25.8613V98.2759H31.0337V93.1035Z" fill="black"/>
<path d="M36.2076 93.1035H31.0352V98.2759H36.2076V93.1035Z" fill="black"/>
<path d="M46.5523 93.1035H41.3799V98.2759H46.5523V93.1035Z" fill="black"/>
<path d="M56.896 93.1035H51.7236V98.2759H56.896V93.1035Z" fill="black"/>
<path d="M72.4136 93.1034H67.2412V98.2758H72.4136V93.1034Z" fill="black"/>
<path d="M77.5855 93.1035H72.4131V98.2759H77.5855V93.1035Z" fill="black"/>
<path d="M82.7574 93.1035H77.585V98.2759H82.7574V93.1035Z" fill="black"/>
<path d="M87.9302 93.1035H82.7578V98.2759H87.9302V93.1035Z" fill="black"/>
<path d="M98.2759 93.1034H93.1035V98.2758H98.2759V93.1034Z" fill="black"/>
<path d="M103.449 93.1035H98.2764V98.2759H103.449V93.1035Z" fill="black"/>
<path d="M108.621 93.1034H103.448V98.2758H108.621V93.1034Z" fill="black"/>
<path d="M113.793 93.1035H108.62V98.2759H113.793V93.1035Z" fill="black"/>
<path d="M118.965 93.1034H113.793V98.2758H118.965V93.1034Z" fill="black"/>
<path d="M129.31 93.1034H124.138V98.2758H129.31V93.1034Z" fill="black"/>
<path d="M56.896 98.2758H51.7236V103.448H56.896V98.2758Z" fill="black"/>
<path d="M77.5855 98.2758H72.4131V103.448H77.5855V98.2758Z" fill="black"/>
<path d="M82.7574 98.2758H77.585V103.448H82.7574V98.2758Z" fill="black"/>
<path d="M98.2759 98.2758H93.1035V103.448H98.2759V98.2758Z" fill="black"/>
<path d="M118.965 98.2758H113.793V103.448H118.965V98.2758Z" fill="black"/>
<path d="M62.0689 103.448H56.8965V108.621H62.0689V103.448Z" fill="black"/>
<path d="M72.4136 103.448H67.2412V108.621H72.4136V103.448Z" fill="black"/>
<path d="M77.5855 103.448H72.4131V108.621H77.5855V103.448Z" fill="black"/>
<path d="M98.2759 103.448H93.1035V108.621H98.2759V103.448Z" fill="black"/>
<path d="M108.621 103.448H103.448V108.621H108.621V103.448Z" fill="black"/>
<path d="M118.965 103.448H113.793V108.621H118.965V103.448Z" fill="black"/>
<path d="M139.656 103.448H134.483V108.621H139.656V103.448Z" fill="black"/>
<path d="M62.0689 108.621H56.8965V113.793H62.0689V108.621Z" fill="black"/>
<path d="M67.2408 108.621H62.0684V113.793H67.2408V108.621Z" fill="black"/>
<path d="M72.4136 108.621H67.2412V113.793H72.4136V108.621Z" fill="black"/>
<path d="M77.5855 108.621H72.4131V113.793H77.5855V108.621Z" fill="black"/>
<path d="M87.9302 108.621H82.7578V113.793H87.9302V108.621Z" fill="black"/>
<path d="M93.1041 108.621H87.9316V113.793H93.1041V108.621Z" fill="black"/>
<path d="M98.2759 108.621H93.1035V113.793H98.2759V108.621Z" fill="black"/>
<path d="M118.965 108.621H113.793V113.793H118.965V108.621Z" fill="black"/>
<path d="M134.482 108.621H129.31V113.793H134.482V108.621Z" fill="black"/>
<path d="M139.656 108.621H134.483V113.793H139.656V108.621Z" fill="black"/>
<path d="M67.2408 113.793H62.0684V118.966H67.2408V113.793Z" fill="black"/>
<path d="M82.7574 113.793H77.585V118.966H82.7574V113.793Z" fill="black"/>
<path d="M87.9302 113.793H82.7578V118.966H87.9302V113.793Z" fill="black"/>
<path d="M93.1041 113.793H87.9316V118.966H93.1041V113.793Z" fill="black"/>
<path d="M98.2759 113.793H93.1035V118.966H98.2759V113.793Z" fill="black"/>
<path d="M103.449 113.793H98.2764V118.966H103.449V113.793Z" fill="black"/>
<path d="M108.621 113.793H103.448V118.966H108.621V113.793Z" fill="black"/>
<path d="M113.793 113.793H108.62V118.966H113.793V113.793Z" fill="black"/>
<path d="M118.965 113.793H113.793V118.966H118.965V113.793Z" fill="black"/>
<path d="M129.31 113.793H124.138V118.966H129.31V113.793Z" fill="black"/>
<path d="M72.4136 118.966H67.2412V124.138H72.4136V118.966Z" fill="black"/>
<path d="M93.1041 118.966H87.9316V124.138H93.1041V118.966Z" fill="black"/>
<path d="M103.449 118.966H98.2764V124.138H103.449V118.966Z" fill="black"/>
<path d="M108.621 118.966H103.448V124.138H108.621V118.966Z" fill="black"/>
<path d="M134.482 118.966H129.31V124.138H134.482V118.966Z" fill="black"/>
<path d="M139.656 118.966H134.483V124.138H139.656V118.966Z" fill="black"/>
<path d="M62.0689 124.138H56.8965V129.31H62.0689V124.138Z" fill="black"/>
<path d="M98.2759 124.138H93.1035V129.31H98.2759V124.138Z" fill="black"/>
<path d="M124.137 124.138H118.965V129.31H124.137V124.138Z" fill="black"/>
<path d="M129.31 124.138H124.138V129.31H129.31V124.138Z" fill="black"/>
<path d="M139.656 124.138H134.483V129.31H139.656V124.138Z" fill="black"/>
<path d="M62.0689 129.31H56.8965V134.483H62.0689V129.31Z" fill="black"/>
<path d="M98.2759 129.31H93.1035V134.483H98.2759V129.31Z" fill="black"/>
<path d="M103.449 129.31H98.2764V134.483H103.449V129.31Z" fill="black"/>
<path d="M108.621 129.31H103.448V134.483H108.621V129.31Z" fill="black"/>
<path d="M113.793 129.31H108.62V134.483H113.793V129.31Z" fill="black"/>
<path d="M118.965 129.31H113.793V134.483H118.965V129.31Z" fill="black"/>
<path d="M139.656 129.31H134.483V134.483H139.656V129.31Z" fill="black"/>
<path d="M56.896 134.483H51.7236V139.655H56.896V134.483Z" fill="black"/>
<path d="M62.0689 134.483H56.8965V139.655H62.0689V134.483Z" fill="black"/>
<path d="M67.2408 134.483H62.0684V139.655H67.2408V134.483Z" fill="black"/>
<path d="M72.4136 134.483H67.2412V139.655H72.4136V134.483Z" fill="black"/>
<path d="M77.5855 134.483H72.4131V139.655H77.5855V134.483Z" fill="black"/>
<path d="M93.1041 134.483H87.9316V139.655H93.1041V134.483Z" fill="black"/>
<path d="M98.2759 134.483H93.1035V139.655H98.2759V134.483Z" fill="black"/>
<path d="M108.621 134.483H103.448V139.655H108.621V134.483Z" fill="black"/>
<path d="M124.137 134.483H118.965V139.655H124.137V134.483Z" fill="black"/>
<path d="M139.656 134.483H134.483V139.655H139.656V134.483Z" fill="black"/>
<path d="M41.1206 10.3448H15.7758H10.3447V15.7759V41.1207V46.5517H15.7758H41.1206H46.5516V41.1207V15.7759V10.3448H41.1206ZM41.1206 41.1207H15.7758V15.7759H41.1206V41.1207Z" fill="black"/>
<path d="M134.224 10.3448H108.879H103.448V15.7759V41.1207V46.5517H108.879H134.224H139.655V41.1207V15.7759V10.3448H134.224ZM134.224 41.1207H108.879V15.7759H134.224V41.1207Z" fill="black"/>
<path d="M41.1206 103.448H15.7758H10.3447V108.879V134.224V139.655H15.7758H41.1206H46.5516V134.224V108.879V103.448H41.1206ZM41.1206 134.224H15.7758V108.879H41.1206V134.224Z" fill="black"/>
<path d="M36.2067 20.6896H20.6895V36.2069H36.2067V20.6896Z" fill="black"/>
<path d="M129.31 20.6896H113.793V36.2069H129.31V20.6896Z" fill="black"/>
<path d="M36.2067 113.793H20.6895V129.31H36.2067V113.793Z" fill="black"/>
</g>
<defs>
<clipPath id="clip0_28_16908">
<rect width="150" height="150" fill="white"/>
</clipPath>
</defs>
</svg>
